%TF.GenerationSoftware,KiCad,Pcbnew,8.0.4*%
%TF.CreationDate,2024-08-21T17:36:00-07:00*%
%TF.ProjectId,SMA_Test_Bed,534d415f-5465-4737-945f-4265642e6b69,rev?*%
%TF.SameCoordinates,Original*%
%TF.FileFunction,Soldermask,Bot*%
%TF.FilePolarity,Negative*%
%FSLAX46Y46*%
G04 Gerber Fmt 4.6, Leading zero omitted, Abs format (unit mm)*
G04 Created by KiCad (PCBNEW 8.0.4) date 2024-08-21 17:36:00*
%MOMM*%
%LPD*%
G01*
G04 APERTURE LIST*
%ADD10C,0.800000*%
%ADD11C,5.400000*%
%ADD12C,2.600000*%
%ADD13C,3.800000*%
%ADD14R,1.700000X1.700000*%
%ADD15O,1.700000X1.700000*%
G04 APERTURE END LIST*
D10*
%TO.C,H3*%
X98150000Y-125800000D03*
X98743109Y-124368109D03*
X98743109Y-127231891D03*
X100175000Y-123775000D03*
D11*
X100175000Y-125800000D03*
D10*
X100175000Y-127825000D03*
X101606891Y-124368109D03*
X101606891Y-127231891D03*
X102200000Y-125800000D03*
%TD*%
D12*
%TO.C,J18*%
X189475000Y-114200000D03*
D13*
X189475000Y-114200000D03*
D12*
X195325000Y-114200000D03*
D13*
X195325000Y-114200000D03*
%TD*%
D10*
%TO.C,H1*%
X97325000Y-67950000D03*
X97918109Y-66518109D03*
X97918109Y-69381891D03*
X99350000Y-65925000D03*
D11*
X99350000Y-67950000D03*
D10*
X99350000Y-69975000D03*
X100781891Y-66518109D03*
X100781891Y-69381891D03*
X101375000Y-67950000D03*
%TD*%
D14*
%TO.C,J1*%
X143090000Y-127250000D03*
D15*
X145630000Y-127250000D03*
X148170000Y-127250000D03*
X150710000Y-127250000D03*
X153250000Y-127250000D03*
X155790000Y-127250000D03*
X158330000Y-127250000D03*
X160870000Y-127250000D03*
X163410000Y-127250000D03*
X165950000Y-127250000D03*
X168490000Y-127250000D03*
X171030000Y-127250000D03*
X173570000Y-127250000D03*
X176110000Y-127250000D03*
X176070000Y-112010000D03*
X173530000Y-112010000D03*
X170990000Y-112010000D03*
X168450000Y-112010000D03*
X165910000Y-112010000D03*
X163370000Y-112010000D03*
X160830000Y-112010000D03*
X158290000Y-112010000D03*
X155750000Y-112010000D03*
X153210000Y-112010000D03*
X150670000Y-112010000D03*
X148130000Y-112010000D03*
X145590000Y-112010000D03*
D14*
X143050000Y-112010000D03*
%TD*%
D10*
%TO.C,H4*%
X217925000Y-125825000D03*
X218518109Y-124393109D03*
X218518109Y-127256891D03*
X219950000Y-123800000D03*
D11*
X219950000Y-125825000D03*
D10*
X219950000Y-127850000D03*
X221381891Y-124393109D03*
X221381891Y-127256891D03*
X221975000Y-125825000D03*
%TD*%
%TO.C,H2*%
X218325000Y-68200000D03*
X218918109Y-66768109D03*
X218918109Y-69631891D03*
X220350000Y-66175000D03*
D11*
X220350000Y-68200000D03*
D10*
X220350000Y-70225000D03*
X221781891Y-66768109D03*
X221781891Y-69631891D03*
X222375000Y-68200000D03*
%TD*%
M02*
