%TF.GenerationSoftware,KiCad,Pcbnew,8.0.4*%
%TF.CreationDate,2024-08-21T17:36:00-07:00*%
%TF.ProjectId,SMA_Test_Bed,534d415f-5465-4737-945f-4265642e6b69,rev?*%
%TF.SameCoordinates,Original*%
%TF.FileFunction,Soldermask,Top*%
%TF.FilePolarity,Negative*%
%FSLAX46Y46*%
G04 Gerber Fmt 4.6, Leading zero omitted, Abs format (unit mm)*
G04 Created by KiCad (PCBNEW 8.0.4) date 2024-08-21 17:36:00*
%MOMM*%
%LPD*%
G01*
G04 APERTURE LIST*
G04 Aperture macros list*
%AMRoundRect*
0 Rectangle with rounded corners*
0 $1 Rounding radius*
0 $2 $3 $4 $5 $6 $7 $8 $9 X,Y pos of 4 corners*
0 Add a 4 corners polygon primitive as box body*
4,1,4,$2,$3,$4,$5,$6,$7,$8,$9,$2,$3,0*
0 Add four circle primitives for the rounded corners*
1,1,$1+$1,$2,$3*
1,1,$1+$1,$4,$5*
1,1,$1+$1,$6,$7*
1,1,$1+$1,$8,$9*
0 Add four rect primitives between the rounded corners*
20,1,$1+$1,$2,$3,$4,$5,0*
20,1,$1+$1,$4,$5,$6,$7,0*
20,1,$1+$1,$6,$7,$8,$9,0*
20,1,$1+$1,$8,$9,$2,$3,0*%
G04 Aperture macros list end*
%ADD10RoundRect,0.200000X-0.275000X0.200000X-0.275000X-0.200000X0.275000X-0.200000X0.275000X0.200000X0*%
%ADD11RoundRect,0.200000X0.275000X-0.200000X0.275000X0.200000X-0.275000X0.200000X-0.275000X-0.200000X0*%
%ADD12RoundRect,0.225000X0.250000X-0.225000X0.250000X0.225000X-0.250000X0.225000X-0.250000X-0.225000X0*%
%ADD13RoundRect,0.635000X-0.635000X-1.365000X0.635000X-1.365000X0.635000X1.365000X-0.635000X1.365000X0*%
%ADD14C,0.800000*%
%ADD15C,5.400000*%
%ADD16RoundRect,0.150000X-0.825000X-0.150000X0.825000X-0.150000X0.825000X0.150000X-0.825000X0.150000X0*%
%ADD17RoundRect,0.225000X-0.225000X-0.250000X0.225000X-0.250000X0.225000X0.250000X-0.225000X0.250000X0*%
%ADD18RoundRect,0.225000X-0.250000X0.225000X-0.250000X-0.225000X0.250000X-0.225000X0.250000X0.225000X0*%
%ADD19C,2.600000*%
%ADD20C,3.800000*%
%ADD21RoundRect,0.100000X-0.637500X-0.100000X0.637500X-0.100000X0.637500X0.100000X-0.637500X0.100000X0*%
%ADD22RoundRect,0.375000X-0.625000X-0.375000X0.625000X-0.375000X0.625000X0.375000X-0.625000X0.375000X0*%
%ADD23RoundRect,0.500000X-0.500000X-1.400000X0.500000X-1.400000X0.500000X1.400000X-0.500000X1.400000X0*%
%ADD24RoundRect,0.375000X0.625000X0.375000X-0.625000X0.375000X-0.625000X-0.375000X0.625000X-0.375000X0*%
%ADD25RoundRect,0.500000X0.500000X1.400000X-0.500000X1.400000X-0.500000X-1.400000X0.500000X-1.400000X0*%
%ADD26R,1.700000X1.700000*%
%ADD27O,1.700000X1.700000*%
%ADD28RoundRect,0.250000X-0.475000X0.250000X-0.475000X-0.250000X0.475000X-0.250000X0.475000X0.250000X0*%
G04 APERTURE END LIST*
D10*
%TO.C,R18*%
X156818065Y-82992431D03*
X156818065Y-84642431D03*
%TD*%
D11*
%TO.C,R45*%
X172225000Y-99600000D03*
X172225000Y-97950000D03*
%TD*%
%TO.C,R57*%
X164650000Y-87925000D03*
X164650000Y-86275000D03*
%TD*%
D10*
%TO.C,R78*%
X125400000Y-82975000D03*
X125400000Y-84625000D03*
%TD*%
D12*
%TO.C,C6*%
X140843065Y-96467431D03*
X140843065Y-94917431D03*
%TD*%
D13*
%TO.C,J9*%
X209000000Y-69750000D03*
X213000000Y-69750000D03*
%TD*%
D11*
%TO.C,R16*%
X149943065Y-99667431D03*
X149943065Y-98017431D03*
%TD*%
D14*
%TO.C,H3*%
X98150000Y-125800000D03*
X98743109Y-124368109D03*
X98743109Y-127231891D03*
X100175000Y-123775000D03*
D15*
X100175000Y-125800000D03*
D14*
X100175000Y-127825000D03*
X101606891Y-124368109D03*
X101606891Y-127231891D03*
X102200000Y-125800000D03*
%TD*%
D16*
%TO.C,U5*%
X111500000Y-96565000D03*
X111500000Y-97835000D03*
X111500000Y-99105000D03*
X111500000Y-100375000D03*
X111500000Y-101645000D03*
X111500000Y-102915000D03*
X111500000Y-104185000D03*
X116450000Y-104185000D03*
X116450000Y-102915000D03*
X116450000Y-101645000D03*
X116450000Y-100375000D03*
X116450000Y-99105000D03*
X116450000Y-97835000D03*
X116450000Y-96565000D03*
%TD*%
D13*
%TO.C,J13*%
X178200000Y-69700000D03*
X182200000Y-69700000D03*
%TD*%
D10*
%TO.C,R14*%
X151543065Y-98017431D03*
X151543065Y-99667431D03*
%TD*%
D11*
%TO.C,R72*%
X120125000Y-96550000D03*
X120125000Y-94900000D03*
%TD*%
D12*
%TO.C,C24*%
X172225000Y-96450000D03*
X172225000Y-94900000D03*
%TD*%
D17*
%TO.C,C3*%
X144468065Y-105892431D03*
X146018065Y-105892431D03*
%TD*%
D10*
%TO.C,R19*%
X135068065Y-89592431D03*
X135068065Y-91242431D03*
%TD*%
D18*
%TO.C,C13*%
X199825000Y-98050000D03*
X199825000Y-99600000D03*
%TD*%
D11*
%TO.C,R71*%
X107825000Y-102700000D03*
X107825000Y-101050000D03*
%TD*%
D13*
%TO.C,J10*%
X170200000Y-69700000D03*
X174200000Y-69700000D03*
%TD*%
D11*
%TO.C,R20*%
X154918065Y-80442431D03*
X154918065Y-78792431D03*
%TD*%
D10*
%TO.C,R29*%
X197250000Y-82125000D03*
X197250000Y-83775000D03*
%TD*%
D11*
%TO.C,R10*%
X155018065Y-87942431D03*
X155018065Y-86292431D03*
%TD*%
%TO.C,R43*%
X170625000Y-96500000D03*
X170625000Y-94850000D03*
%TD*%
%TO.C,R27*%
X195600000Y-80475000D03*
X195600000Y-78825000D03*
%TD*%
%TO.C,R12*%
X151543065Y-96567431D03*
X151543065Y-94917431D03*
%TD*%
%TO.C,R80*%
X123500000Y-80425000D03*
X123500000Y-78775000D03*
%TD*%
D12*
%TO.C,C8*%
X137643065Y-102667431D03*
X137643065Y-101117431D03*
%TD*%
D11*
%TO.C,R56*%
X181325000Y-99650000D03*
X181325000Y-98000000D03*
%TD*%
%TO.C,R82*%
X139600000Y-114425000D03*
X139600000Y-112775000D03*
%TD*%
D12*
%TO.C,C11*%
X149943065Y-96517431D03*
X149943065Y-94967431D03*
%TD*%
D19*
%TO.C,J18*%
X189475000Y-114200000D03*
D20*
X189475000Y-114200000D03*
D19*
X195325000Y-114200000D03*
D20*
X195325000Y-114200000D03*
%TD*%
D21*
%TO.C,U1*%
X125262500Y-114900000D03*
X125262500Y-115550000D03*
X125262500Y-116200000D03*
X125262500Y-116850000D03*
X125262500Y-117500000D03*
X125262500Y-118150000D03*
X125262500Y-118800000D03*
X125262500Y-119450000D03*
X125262500Y-120100000D03*
X125262500Y-120750000D03*
X125262500Y-121400000D03*
X125262500Y-122050000D03*
X125262500Y-122700000D03*
X125262500Y-123350000D03*
X130987500Y-123350000D03*
X130987500Y-122700000D03*
X130987500Y-122050000D03*
X130987500Y-121400000D03*
X130987500Y-120750000D03*
X130987500Y-120100000D03*
X130987500Y-119450000D03*
X130987500Y-118800000D03*
X130987500Y-118150000D03*
X130987500Y-117500000D03*
X130987500Y-116850000D03*
X130987500Y-116200000D03*
X130987500Y-115550000D03*
X130987500Y-114900000D03*
%TD*%
D22*
%TO.C,Q9*%
X168700000Y-79400000D03*
X168700000Y-81700000D03*
X168700000Y-84000000D03*
D23*
X175000000Y-81700000D03*
%TD*%
D12*
%TO.C,C35*%
X106225000Y-102650000D03*
X106225000Y-101100000D03*
%TD*%
D16*
%TO.C,U3*%
X205100000Y-96615000D03*
X205100000Y-97885000D03*
X205100000Y-99155000D03*
X205100000Y-100425000D03*
X205100000Y-101695000D03*
X205100000Y-102965000D03*
X205100000Y-104235000D03*
X210050000Y-104235000D03*
X210050000Y-102965000D03*
X210050000Y-101695000D03*
X210050000Y-100425000D03*
X210050000Y-99155000D03*
X210050000Y-97885000D03*
X210050000Y-96615000D03*
%TD*%
D10*
%TO.C,R55*%
X172225000Y-101050000D03*
X172225000Y-102700000D03*
%TD*%
D18*
%TO.C,C37*%
X109425000Y-104200000D03*
X109425000Y-105750000D03*
%TD*%
D11*
%TO.C,R3*%
X139243065Y-96517431D03*
X139243065Y-94867431D03*
%TD*%
D10*
%TO.C,R42*%
X182850000Y-104100000D03*
X182850000Y-105750000D03*
%TD*%
%TO.C,R66*%
X118525000Y-101050000D03*
X118525000Y-102700000D03*
%TD*%
D18*
%TO.C,C7*%
X149943065Y-104192431D03*
X149943065Y-105742431D03*
%TD*%
D24*
%TO.C,Q8*%
X214900000Y-84050000D03*
X214900000Y-81750000D03*
X214900000Y-79450000D03*
D25*
X208600000Y-81750000D03*
%TD*%
D10*
%TO.C,R6*%
X149943065Y-101067431D03*
X149943065Y-102717431D03*
%TD*%
D13*
%TO.C,J12*%
X170200000Y-74700000D03*
X174200000Y-74700000D03*
%TD*%
D10*
%TO.C,R59*%
X166450000Y-89575000D03*
X166450000Y-91225000D03*
%TD*%
%TO.C,R89*%
X186400000Y-90475000D03*
X186400000Y-92125000D03*
%TD*%
D18*
%TO.C,C27*%
X184525000Y-98050000D03*
X184525000Y-99600000D03*
%TD*%
D12*
%TO.C,C20*%
X212125000Y-96550000D03*
X212125000Y-95000000D03*
%TD*%
D13*
%TO.C,J15*%
X115400000Y-74700000D03*
X119400000Y-74700000D03*
%TD*%
D10*
%TO.C,R48*%
X188100000Y-90475000D03*
X188100000Y-92125000D03*
%TD*%
%TO.C,R39*%
X197250000Y-89625000D03*
X197250000Y-91275000D03*
%TD*%
D12*
%TO.C,C23*%
X184525000Y-102650000D03*
X184525000Y-101100000D03*
%TD*%
D11*
%TO.C,R37*%
X195450000Y-87975000D03*
X195450000Y-86325000D03*
%TD*%
D18*
%TO.C,C31*%
X106225000Y-98000000D03*
X106225000Y-99550000D03*
%TD*%
D11*
%TO.C,R17*%
X133268065Y-87942431D03*
X133268065Y-86292431D03*
%TD*%
D22*
%TO.C,Q7*%
X199500000Y-86950000D03*
X199500000Y-89250000D03*
X199500000Y-91550000D03*
D23*
X205800000Y-89250000D03*
%TD*%
D18*
%TO.C,C10*%
X140843065Y-104217431D03*
X140843065Y-105767431D03*
%TD*%
%TO.C,C19*%
X203025000Y-104250000D03*
X203025000Y-105800000D03*
%TD*%
D11*
%TO.C,R47*%
X164800000Y-80425000D03*
X164800000Y-78775000D03*
%TD*%
D12*
%TO.C,C14*%
X215325000Y-102700000D03*
X215325000Y-101150000D03*
%TD*%
D14*
%TO.C,H1*%
X97325000Y-67950000D03*
X97918109Y-66518109D03*
X97918109Y-69381891D03*
X99350000Y-65925000D03*
D15*
X99350000Y-67950000D03*
D14*
X99350000Y-69975000D03*
X100781891Y-66518109D03*
X100781891Y-69381891D03*
X101375000Y-67950000D03*
%TD*%
D12*
%TO.C,C15*%
X203025000Y-96500000D03*
X203025000Y-94950000D03*
%TD*%
D24*
%TO.C,Q10*%
X184150000Y-91500000D03*
X184150000Y-89200000D03*
X184150000Y-86900000D03*
D25*
X177850000Y-89200000D03*
%TD*%
D22*
%TO.C,Q13*%
X105900000Y-79400000D03*
X105900000Y-81700000D03*
X105900000Y-84000000D03*
D23*
X112200000Y-81700000D03*
%TD*%
D10*
%TO.C,R41*%
X170625000Y-97950000D03*
X170625000Y-99600000D03*
%TD*%
%TO.C,R26*%
X212125000Y-101100000D03*
X212125000Y-102750000D03*
%TD*%
D22*
%TO.C,Q3*%
X137318065Y-86917431D03*
X137318065Y-89217431D03*
X137318065Y-91517431D03*
D23*
X143618065Y-89217431D03*
%TD*%
D11*
%TO.C,R50*%
X186400000Y-87925000D03*
X186400000Y-86275000D03*
%TD*%
D24*
%TO.C,Q6*%
X214950000Y-91550000D03*
X214950000Y-89250000D03*
X214950000Y-86950000D03*
D25*
X208650000Y-89250000D03*
%TD*%
D13*
%TO.C,J7*%
X209000000Y-74750000D03*
X213000000Y-74750000D03*
%TD*%
D11*
%TO.C,R83*%
X135018065Y-80442431D03*
X135018065Y-78792431D03*
%TD*%
D24*
%TO.C,Q4*%
X152718065Y-84017431D03*
X152718065Y-81717431D03*
X152718065Y-79417431D03*
D25*
X146418065Y-81717431D03*
%TD*%
D17*
%TO.C,C12*%
X206650000Y-105925000D03*
X208200000Y-105925000D03*
%TD*%
D10*
%TO.C,R28*%
X218900000Y-90525000D03*
X218900000Y-92175000D03*
%TD*%
D11*
%TO.C,R84*%
X197200000Y-80475000D03*
X197200000Y-78825000D03*
%TD*%
D13*
%TO.C,J17*%
X115400000Y-69700000D03*
X119400000Y-69700000D03*
%TD*%
D10*
%TO.C,R68*%
X125300000Y-90475000D03*
X125300000Y-92125000D03*
%TD*%
%TO.C,R49*%
X166450000Y-82075000D03*
X166450000Y-83725000D03*
%TD*%
D11*
%TO.C,R7*%
X133418065Y-80442431D03*
X133418065Y-78792431D03*
%TD*%
D24*
%TO.C,Q12*%
X184100000Y-84000000D03*
X184100000Y-81700000D03*
X184100000Y-79400000D03*
D25*
X177800000Y-81700000D03*
%TD*%
D10*
%TO.C,R38*%
X219000000Y-83025000D03*
X219000000Y-84675000D03*
%TD*%
D12*
%TO.C,C33*%
X109425000Y-96450000D03*
X109425000Y-94900000D03*
%TD*%
D13*
%TO.C,J6*%
X201000000Y-69750000D03*
X205000000Y-69750000D03*
%TD*%
D10*
%TO.C,R95*%
X155018065Y-82992431D03*
X155018065Y-84642431D03*
%TD*%
%TO.C,R9*%
X135068065Y-82092431D03*
X135068065Y-83742431D03*
%TD*%
%TO.C,R21*%
X201425000Y-98000000D03*
X201425000Y-99650000D03*
%TD*%
D13*
%TO.C,J4*%
X138818065Y-74717431D03*
X142818065Y-74717431D03*
%TD*%
D26*
%TO.C,J1*%
X143090000Y-127250000D03*
D27*
X145630000Y-127250000D03*
X148170000Y-127250000D03*
X150710000Y-127250000D03*
X153250000Y-127250000D03*
X155790000Y-127250000D03*
X158330000Y-127250000D03*
X160870000Y-127250000D03*
X163410000Y-127250000D03*
X165950000Y-127250000D03*
X168490000Y-127250000D03*
X171030000Y-127250000D03*
X173570000Y-127250000D03*
X176110000Y-127250000D03*
X176070000Y-112010000D03*
X173530000Y-112010000D03*
X170990000Y-112010000D03*
X168450000Y-112010000D03*
X165910000Y-112010000D03*
X163370000Y-112010000D03*
X160830000Y-112010000D03*
X158290000Y-112010000D03*
X155750000Y-112010000D03*
X153210000Y-112010000D03*
X150670000Y-112010000D03*
X148130000Y-112010000D03*
X145590000Y-112010000D03*
D26*
X143050000Y-112010000D03*
%TD*%
D13*
%TO.C,J5*%
X146818065Y-69717431D03*
X150818065Y-69717431D03*
%TD*%
D10*
%TO.C,R2*%
X151468065Y-104117431D03*
X151468065Y-105767431D03*
%TD*%
D11*
%TO.C,R11*%
X139243065Y-102717431D03*
X139243065Y-101067431D03*
%TD*%
D14*
%TO.C,H4*%
X217925000Y-125825000D03*
X218518109Y-124393109D03*
X218518109Y-127256891D03*
X219950000Y-123800000D03*
D15*
X219950000Y-125825000D03*
D14*
X219950000Y-127850000D03*
X221381891Y-124393109D03*
X221381891Y-127256891D03*
X221975000Y-125825000D03*
%TD*%
D11*
%TO.C,R64*%
X120125000Y-102700000D03*
X120125000Y-101050000D03*
%TD*%
%TO.C,R65*%
X109425000Y-99600000D03*
X109425000Y-97950000D03*
%TD*%
%TO.C,R85*%
X166400000Y-80425000D03*
X166400000Y-78775000D03*
%TD*%
%TO.C,R67*%
X102000000Y-80425000D03*
X102000000Y-78775000D03*
%TD*%
D18*
%TO.C,C28*%
X172225000Y-104200000D03*
X172225000Y-105750000D03*
%TD*%
D16*
%TO.C,U4*%
X174300000Y-96565000D03*
X174300000Y-97835000D03*
X174300000Y-99105000D03*
X174300000Y-100375000D03*
X174300000Y-101645000D03*
X174300000Y-102915000D03*
X174300000Y-104185000D03*
X179250000Y-104185000D03*
X179250000Y-102915000D03*
X179250000Y-101645000D03*
X179250000Y-100375000D03*
X179250000Y-99105000D03*
X179250000Y-97835000D03*
X179250000Y-96565000D03*
%TD*%
D24*
%TO.C,Q16*%
X121300000Y-84000000D03*
X121300000Y-81700000D03*
X121300000Y-79400000D03*
D25*
X115000000Y-81700000D03*
%TD*%
D11*
%TO.C,R70*%
X123600000Y-87925000D03*
X123600000Y-86275000D03*
%TD*%
D24*
%TO.C,Q14*%
X121350000Y-91500000D03*
X121350000Y-89200000D03*
X121350000Y-86900000D03*
D25*
X115050000Y-89200000D03*
%TD*%
D16*
%TO.C,U2*%
X142918065Y-96582431D03*
X142918065Y-97852431D03*
X142918065Y-99122431D03*
X142918065Y-100392431D03*
X142918065Y-101662431D03*
X142918065Y-102932431D03*
X142918065Y-104202431D03*
X147868065Y-104202431D03*
X147868065Y-102932431D03*
X147868065Y-101662431D03*
X147868065Y-100392431D03*
X147868065Y-99122431D03*
X147868065Y-97852431D03*
X147868065Y-96582431D03*
%TD*%
D13*
%TO.C,J2*%
X138818065Y-69717431D03*
X142818065Y-69717431D03*
%TD*%
D10*
%TO.C,R98*%
X123600000Y-82975000D03*
X123600000Y-84625000D03*
%TD*%
%TO.C,R87*%
X155018065Y-90492431D03*
X155018065Y-92142431D03*
%TD*%
D11*
%TO.C,R63*%
X107825000Y-96500000D03*
X107825000Y-94850000D03*
%TD*%
D10*
%TO.C,R61*%
X107825000Y-97950000D03*
X107825000Y-99600000D03*
%TD*%
%TO.C,R88*%
X217200000Y-90525000D03*
X217200000Y-92175000D03*
%TD*%
%TO.C,R73*%
X107825000Y-104150000D03*
X107825000Y-105800000D03*
%TD*%
D11*
%TO.C,R51*%
X170625000Y-102700000D03*
X170625000Y-101050000D03*
%TD*%
%TO.C,R25*%
X203025000Y-99650000D03*
X203025000Y-98000000D03*
%TD*%
%TO.C,R86*%
X103600000Y-80425000D03*
X103600000Y-78775000D03*
%TD*%
D12*
%TO.C,C32*%
X121725000Y-102650000D03*
X121725000Y-101100000D03*
%TD*%
D18*
%TO.C,C9*%
X153143065Y-98067431D03*
X153143065Y-99617431D03*
%TD*%
D11*
%TO.C,R32*%
X213725000Y-96600000D03*
X213725000Y-94950000D03*
%TD*%
%TO.C,R40*%
X217100000Y-80475000D03*
X217100000Y-78825000D03*
%TD*%
%TO.C,R60*%
X186300000Y-80425000D03*
X186300000Y-78775000D03*
%TD*%
D12*
%TO.C,C5*%
X153143065Y-102667431D03*
X153143065Y-101117431D03*
%TD*%
D10*
%TO.C,R46*%
X181325000Y-101050000D03*
X181325000Y-102700000D03*
%TD*%
D12*
%TO.C,C29*%
X181325000Y-96500000D03*
X181325000Y-94950000D03*
%TD*%
D18*
%TO.C,C18*%
X215325000Y-98100000D03*
X215325000Y-99650000D03*
%TD*%
D11*
%TO.C,R4*%
X151543065Y-102717431D03*
X151543065Y-101067431D03*
%TD*%
D10*
%TO.C,R97*%
X186400000Y-82975000D03*
X186400000Y-84625000D03*
%TD*%
D22*
%TO.C,Q15*%
X105900000Y-86900000D03*
X105900000Y-89200000D03*
X105900000Y-91500000D03*
D23*
X112200000Y-89200000D03*
%TD*%
D22*
%TO.C,Q11*%
X168700000Y-86900000D03*
X168700000Y-89200000D03*
X168700000Y-91500000D03*
D23*
X175000000Y-89200000D03*
%TD*%
D18*
%TO.C,C25*%
X181325000Y-104175000D03*
X181325000Y-105725000D03*
%TD*%
D13*
%TO.C,J8*%
X201000000Y-74750000D03*
X205000000Y-74750000D03*
%TD*%
D17*
%TO.C,C21*%
X175850000Y-105875000D03*
X177400000Y-105875000D03*
%TD*%
D10*
%TO.C,R75*%
X109425000Y-101050000D03*
X109425000Y-102700000D03*
%TD*%
D13*
%TO.C,J3*%
X146818065Y-74717431D03*
X150818065Y-74717431D03*
%TD*%
D10*
%TO.C,R54*%
X182925000Y-98000000D03*
X182925000Y-99650000D03*
%TD*%
D18*
%TO.C,C4*%
X137643065Y-98017431D03*
X137643065Y-99567431D03*
%TD*%
D11*
%TO.C,R36*%
X212125000Y-99700000D03*
X212125000Y-98050000D03*
%TD*%
D12*
%TO.C,C38*%
X118525000Y-96500000D03*
X118525000Y-94950000D03*
%TD*%
D22*
%TO.C,Q5*%
X199500000Y-79450000D03*
X199500000Y-81750000D03*
X199500000Y-84050000D03*
D23*
X205800000Y-81750000D03*
%TD*%
D13*
%TO.C,J14*%
X107400000Y-69700000D03*
X111400000Y-69700000D03*
%TD*%
D18*
%TO.C,C34*%
X118525000Y-104175000D03*
X118525000Y-105725000D03*
%TD*%
D10*
%TO.C,R15*%
X140843065Y-101067431D03*
X140843065Y-102717431D03*
%TD*%
%TO.C,R62*%
X120050000Y-104100000D03*
X120050000Y-105750000D03*
%TD*%
%TO.C,R22*%
X213650000Y-104150000D03*
X213650000Y-105800000D03*
%TD*%
%TO.C,R96*%
X217200000Y-83025000D03*
X217200000Y-84675000D03*
%TD*%
D28*
%TO.C,C1*%
X122925000Y-117775000D03*
X122925000Y-119675000D03*
%TD*%
D10*
%TO.C,R35*%
X203025000Y-101100000D03*
X203025000Y-102750000D03*
%TD*%
D18*
%TO.C,C2*%
X121000000Y-117700000D03*
X121000000Y-119250000D03*
%TD*%
D10*
%TO.C,R53*%
X170625000Y-104150000D03*
X170625000Y-105800000D03*
%TD*%
D11*
%TO.C,R23*%
X201425000Y-96550000D03*
X201425000Y-94900000D03*
%TD*%
D18*
%TO.C,C16*%
X212125000Y-104225000D03*
X212125000Y-105775000D03*
%TD*%
D10*
%TO.C,R90*%
X123600000Y-90475000D03*
X123600000Y-92125000D03*
%TD*%
D17*
%TO.C,C30*%
X113050000Y-105875000D03*
X114600000Y-105875000D03*
%TD*%
D12*
%TO.C,C17*%
X199825000Y-102700000D03*
X199825000Y-101150000D03*
%TD*%
D11*
%TO.C,R93*%
X166450000Y-87925000D03*
X166450000Y-86275000D03*
%TD*%
%TO.C,R91*%
X135068065Y-87942431D03*
X135068065Y-86292431D03*
%TD*%
%TO.C,R76*%
X118525000Y-99650000D03*
X118525000Y-98000000D03*
%TD*%
D10*
%TO.C,R81*%
X137500000Y-112800000D03*
X137500000Y-114450000D03*
%TD*%
D24*
%TO.C,Q2*%
X152768065Y-91517431D03*
X152768065Y-89217431D03*
X152768065Y-86917431D03*
D25*
X146468065Y-89217431D03*
%TD*%
D14*
%TO.C,H2*%
X218325000Y-68200000D03*
X218918109Y-66768109D03*
X218918109Y-69631891D03*
X220350000Y-66175000D03*
D15*
X220350000Y-68200000D03*
D14*
X220350000Y-70225000D03*
X221781891Y-66768109D03*
X221781891Y-69631891D03*
X222375000Y-68200000D03*
%TD*%
D10*
%TO.C,R33*%
X201425000Y-104200000D03*
X201425000Y-105850000D03*
%TD*%
%TO.C,R1*%
X139243065Y-97967431D03*
X139243065Y-99617431D03*
%TD*%
D11*
%TO.C,R52*%
X182925000Y-96550000D03*
X182925000Y-94900000D03*
%TD*%
%TO.C,R31*%
X201425000Y-102750000D03*
X201425000Y-101100000D03*
%TD*%
%TO.C,R24*%
X213725000Y-102750000D03*
X213725000Y-101100000D03*
%TD*%
%TO.C,R5*%
X140843065Y-99617431D03*
X140843065Y-97967431D03*
%TD*%
D10*
%TO.C,R8*%
X156718065Y-90492431D03*
X156718065Y-92142431D03*
%TD*%
D13*
%TO.C,J16*%
X107400000Y-74700000D03*
X111400000Y-74700000D03*
%TD*%
D10*
%TO.C,R74*%
X120125000Y-98000000D03*
X120125000Y-99650000D03*
%TD*%
D11*
%TO.C,R94*%
X103650000Y-87925000D03*
X103650000Y-86275000D03*
%TD*%
D10*
%TO.C,R79*%
X103650000Y-89575000D03*
X103650000Y-91225000D03*
%TD*%
D13*
%TO.C,J11*%
X178200000Y-74700000D03*
X182200000Y-74700000D03*
%TD*%
D10*
%TO.C,R69*%
X103650000Y-82075000D03*
X103650000Y-83725000D03*
%TD*%
D18*
%TO.C,C36*%
X121725000Y-98050000D03*
X121725000Y-99600000D03*
%TD*%
D11*
%TO.C,R44*%
X182925000Y-102700000D03*
X182925000Y-101050000D03*
%TD*%
D12*
%TO.C,C26*%
X169025000Y-102650000D03*
X169025000Y-101100000D03*
%TD*%
D11*
%TO.C,R30*%
X217200000Y-87975000D03*
X217200000Y-86325000D03*
%TD*%
D18*
%TO.C,C22*%
X169025000Y-98000000D03*
X169025000Y-99550000D03*
%TD*%
D10*
%TO.C,R13*%
X139243065Y-104167431D03*
X139243065Y-105817431D03*
%TD*%
D22*
%TO.C,Q1*%
X137318065Y-79417431D03*
X137318065Y-81717431D03*
X137318065Y-84017431D03*
D23*
X143618065Y-81717431D03*
%TD*%
D11*
%TO.C,R92*%
X197250000Y-87975000D03*
X197250000Y-86325000D03*
%TD*%
D10*
%TO.C,R34*%
X213725000Y-98050000D03*
X213725000Y-99700000D03*
%TD*%
%TO.C,R58*%
X188200000Y-82975000D03*
X188200000Y-84625000D03*
%TD*%
D11*
%TO.C,R77*%
X101850000Y-87925000D03*
X101850000Y-86275000D03*
%TD*%
M02*
