M48
; DRILL file {KiCad 8.0.4} date 2024-08-21T17:36:09-0700
; FORMAT={-:-/ absolute / inch / decimal}
; #@! TF.CreationDate,2024-08-21T17:36:09-07:00
; #@! TF.GenerationSoftware,Kicad,Pcbnew,8.0.4
; #@! TF.FileFunction,Plated,1,2,PTH
FMAT,2
INCH
; #@! TA.AperFunction,Plated,PTH,ViaDrill
T1C0.0118
; #@! TA.AperFunction,Plated,PTH,ViaDrill
T2C0.0120
; #@! TA.AperFunction,Plated,PTH,ComponentDrill
T3C0.0197
; #@! TA.AperFunction,Plated,PTH,ComponentDrill
T4C0.0394
; #@! TA.AperFunction,Plated,PTH,ComponentDrill
T5C0.0866
; #@! TA.AperFunction,Plated,PTH,ComponentDrill
T6C0.1063
%
G90
G05
T1
X4.0354Y-3.2283
X4.0394Y-3.5236
X4.2362Y-3.5787
X4.2441Y-3.4488
X4.2559Y-3.3031
X4.2677Y-3.622
X4.2795Y-3.2165
X4.3346Y-3.5315
X4.3504Y-3.4016
X4.3525Y-3.2165
X4.6457Y-3.2087
X4.7087Y-3.2087
X4.7087Y-3.5591
X4.7146Y-3.4606
X4.9134Y-3.1654
X4.9173Y-3.4646
X4.937Y-3.0984
X4.937Y-3.2283
X4.937Y-3.5197
X5.0079Y-4.6673
X5.0177Y-4.5295
X5.0591Y-4.126
X5.2362Y-4.3996
X5.2724Y-3.229
X5.2763Y-3.5243
X5.3346Y-4.378
X5.3346Y-4.5512
X5.3642Y-4.7106
X5.3681Y-4.6181
X5.3957Y-4.2717
X5.4488Y-4.5394
X5.4685Y-3.565
X5.481Y-3.4495
X5.4928Y-3.3038
X5.4941Y-4.3091
X5.5046Y-3.6227
X5.5165Y-3.2172
X5.5295Y-4.3898
X5.5716Y-3.5322
X5.5873Y-3.4023
X5.5895Y-3.2172
X5.8826Y-3.2093
X5.9134Y-4.2717
X5.9456Y-3.2093
X5.9456Y-3.5597
X5.9528Y-3.4272
X6.124Y-4.5906
X6.1457Y-4.7087
X6.1503Y-3.166
X6.1516Y-4.6496
X6.1543Y-3.4653
X6.1739Y-3.0991
X6.1739Y-3.229
X6.1739Y-3.5204
X6.189Y-4.2165
X6.1988Y-4.4783
X6.2815Y-4.4783
X6.5079Y-3.2283
X6.5118Y-3.5236
X6.5807Y-4.3012
X6.7087Y-3.5591
X6.7165Y-3.4488
X6.7283Y-3.3031
X6.7402Y-3.622
X6.752Y-3.2165
X6.8071Y-3.5315
X6.8228Y-3.4016
X6.825Y-3.2165
X7.0157Y-4.3661
X7.0709Y-4.248
X7.0748Y-4.4449
X7.1181Y-3.2087
X7.1811Y-3.2087
X7.1811Y-3.5591
X7.1831Y-3.4213
X7.1969Y-4.2146
X7.2815Y-4.4232
X7.3858Y-3.1654
X7.3898Y-3.4646
X7.4094Y-3.0984
X7.4094Y-3.2283
X7.4094Y-3.5197
X7.4862Y-4.2992
X7.6545Y-4.0217
X7.6988Y-5.0354
X7.7136Y-4.2953
X7.7205Y-3.2303
X7.7244Y-3.5256
X7.7805Y-4.2283
X7.9075Y-4.4528
X7.9203Y-3.5709
X7.9291Y-3.4508
X7.9409Y-3.3051
X7.9528Y-3.624
X7.9646Y-3.2185
X8.0197Y-3.5335
X8.0354Y-3.4035
X8.0376Y-3.2185
X8.3307Y-3.2106
X8.3937Y-3.2106
X8.3937Y-3.561
X8.4065Y-3.4272
X8.4252Y-4.5079
X8.5699Y-4.2146
X8.5984Y-3.1673
X8.6024Y-3.4665
X8.6142Y-4.4626
X8.622Y-3.1004
X8.622Y-3.2303
X8.622Y-3.5217
X8.7825Y-3.7382
T2
X4.1378Y-3.9173
X4.1378Y-3.9803
X4.2008Y-3.7362
X4.2008Y-4.1654
X4.3031Y-4.7598
X4.3051Y-4.8189
X4.4417Y-4.0255
X4.4469Y-3.876
X4.4528Y-3.9528
X4.4646Y-4.122
X4.5039Y-4.122
X4.5236Y-3.9528
X4.5259Y-3.9094
X4.5339Y-4.0268
X4.5787Y-3.7323
X4.7087Y-4.7008
X4.7992Y-4.3189
X4.8268Y-4.9016
X4.8307Y-3.9252
X4.8346Y-3.9803
X4.878Y-4.5236
X4.9291Y-4.8858
X4.9803Y-4.6496
X5.0073Y-4.7025
X5.0157Y-4.7343
X5.0315Y-4.3819
X5.0315Y-4.6024
X5.0591Y-4.2717
X5.0591Y-4.4252
X5.064Y-4.607
X5.0906Y-4.7323
X5.0906Y-4.811
X5.1024Y-4.3504
X5.1024Y-4.3898
X5.185Y-5.0906
X5.2165Y-4.6063
X5.2205Y-4.8228
X5.2283Y-4.6496
X5.2402Y-4.7441
X5.2559Y-4.5394
X5.2598Y-4.7748
X5.263Y-4.5787
X5.3189Y-4.7559
X5.3307Y-4.7953
X5.3747Y-3.918
X5.3747Y-3.981
X5.4377Y-3.7369
X5.4377Y-4.166
X5.6786Y-4.0262
X5.6838Y-3.8767
X5.6897Y-3.9534
X5.7015Y-4.1227
X5.7409Y-4.1227
X5.7606Y-3.9534
X5.7629Y-3.9101
X5.7709Y-4.0275
X5.8157Y-3.733
X6.0676Y-3.9259
X6.0716Y-3.981
X6.2244Y-4.5906
X6.2362Y-4.6496
X6.2402Y-4.7087
X6.6102Y-3.9173
X6.6102Y-3.9803
X6.6732Y-3.7362
X6.6732Y-4.1654
X6.9142Y-4.0255
X6.9193Y-3.876
X6.9252Y-3.9528
X6.937Y-4.122
X6.9764Y-4.122
X6.9961Y-3.9528
X6.9984Y-3.9094
X7.0064Y-4.0268
X7.0512Y-3.7323
X7.3031Y-3.9252
X7.3071Y-3.9803
X7.8228Y-3.9193
X7.8228Y-3.9823
X7.8858Y-3.7382
X7.8858Y-4.1673
X7.9528Y-5.063
X8.1268Y-4.0275
X8.1319Y-3.878
X8.1378Y-3.9547
X8.1496Y-4.124
X8.189Y-4.124
X8.2087Y-3.9547
X8.211Y-3.9114
X8.219Y-4.0287
X8.2638Y-3.7343
X8.5157Y-3.9272
X8.5197Y-3.9823
T3
X3.8317Y-2.6752
X3.855Y-2.6188
X3.855Y-2.7316
X3.8642Y-4.9528
X3.8875Y-4.8964
X3.8875Y-5.0091
X3.9114Y-2.5955
X3.9114Y-2.7549
X3.9439Y-4.873
X3.9439Y-5.0325
X3.9678Y-2.6188
X3.9678Y-2.7316
X3.9911Y-2.6752
X4.0003Y-4.8964
X4.0003Y-5.0091
X4.0236Y-4.9528
X8.5797Y-4.9537
X8.5955Y-2.685
X8.6031Y-4.8974
X8.6031Y-5.0101
X8.6188Y-2.6287
X8.6188Y-2.7414
X8.6594Y-4.874
X8.6594Y-5.0335
X8.6752Y-2.6053
X8.6752Y-2.7648
X8.7158Y-4.8974
X8.7158Y-5.0101
X8.7316Y-2.6287
X8.7316Y-2.7414
X8.7392Y-4.9537
X8.7549Y-2.685
T4
X5.6319Y-4.4098
X5.6335Y-5.0098
X5.7319Y-4.4098
X5.7335Y-5.0098
X5.8319Y-4.4098
X5.8335Y-5.0098
X5.9319Y-4.4098
X5.9335Y-5.0098
X6.0319Y-4.4098
X6.0335Y-5.0098
X6.1319Y-4.4098
X6.1335Y-5.0098
X6.2319Y-4.4098
X6.2335Y-5.0098
X6.3319Y-4.4098
X6.3335Y-5.0098
X6.4319Y-4.4098
X6.4335Y-5.0098
X6.5319Y-4.4098
X6.5335Y-5.0098
X6.6319Y-4.4098
X6.6335Y-5.0098
X6.7319Y-4.4098
X6.7335Y-5.0098
X6.8319Y-4.4098
X6.8335Y-5.0098
X6.9319Y-4.4098
X6.9335Y-5.0098
T5
X7.4596Y-4.4961
X7.69Y-4.4961
T6
X3.9114Y-2.6752
X3.9439Y-4.9528
X8.6594Y-4.9537
X8.6752Y-2.685
M30
